<svg width="364" height="104" viewBox="0 0 364 104" fill="none" xmlns="http://www.w3.org/2000/svg">
<rect width="364" height="104" rx="50" fill="#630FAB"/>
<path d="M109.059 60.0125C108.709 65.3375 106.047 68 101.072 68H93.0469C90.8594 68 88.9781 67.2188 87.4031 65.6562C85.8406 64.0812 85.0594 62.2 85.0594 60.0125V39.9875C85.0594 37.8375 85.8281 35.9687 87.3656 34.3812C88.9156 32.7937 90.8094 32 93.0469 32H101.072C106.097 32 108.759 34.6625 109.059 39.9875H105.047C104.734 37.3375 103.409 36.0125 101.072 36.0125H97.0594C95.9594 36.0125 95.0156 36.4062 94.2281 37.1937C93.4406 37.9687 93.0469 38.9 93.0469 39.9875V60.0125C93.0469 61.0875 93.4344 62.0187 94.2094 62.8062C94.9969 63.5938 95.9469 63.9875 97.0594 63.9875H101.072C103.422 63.9875 104.747 62.6625 105.047 60.0125H109.059ZM125.016 39.9875H133.041C135.228 39.9875 137.103 40.7812 138.666 42.3688C140.241 43.9438 141.028 45.825 141.028 48.0125V60.0125C141.028 62.175 140.241 64.05 138.666 65.6375C137.103 67.2125 135.228 68 133.041 68H125.016C122.828 68 120.947 67.2188 119.372 65.6562C117.809 64.0812 117.028 62.2 117.028 60.0125V48.0125C117.028 45.8 117.816 43.9125 119.391 42.35C120.966 40.775 122.841 39.9875 125.016 39.9875ZM125.016 48.0125V60.0125C125.016 61.0875 125.403 62.0187 126.178 62.8062C126.966 63.5938 127.916 63.9875 129.028 63.9875C130.141 63.9875 131.084 63.5938 131.859 62.8062C132.647 62.0187 133.041 61.0875 133.041 60.0125V48.0125C133.041 46.9125 132.641 45.9687 131.841 45.1812C131.053 44.3937 130.116 44 129.028 44C127.928 44 126.984 44.3937 126.197 45.1812C125.409 45.9687 125.016 46.9125 125.016 48.0125ZM148.997 68V39.9875H156.984V44C157.147 42.65 157.559 41.6437 158.222 40.9812C158.897 40.3187 159.822 39.9875 160.997 39.9875H165.009C167.197 39.9875 169.072 40.7812 170.634 42.3688C172.209 43.9438 172.997 45.825 172.997 48.0125V68H165.009V48.0125C165.009 46.9125 164.609 45.9687 163.809 45.1812C163.022 44.3937 162.084 44 160.997 44C159.897 44 158.953 44.3937 158.166 45.1812C157.378 45.9687 156.984 46.9125 156.984 48.0125V68H148.997ZM200.953 48.0125H196.978C196.628 45.3375 195.366 44 193.191 44C191.778 44 190.716 44.2812 190.003 44.8438C189.291 45.3938 188.934 46.2188 188.934 47.3187C188.934 48.4688 190.878 50.0813 194.766 52.1562C197.928 53.8562 199.747 55.2687 200.222 56.3937C200.709 57.5062 200.953 58.6937 200.953 59.9562C200.953 62.1812 200.166 64.0812 198.591 65.6562C197.028 67.2188 195.153 68 192.966 68H188.953C183.628 68 180.966 65.3375 180.966 60.0125H184.978C185.291 62.675 186.541 64.0062 188.728 64.0062C190.141 64.0062 191.203 63.725 191.916 63.1625C192.628 62.6 192.984 61.7687 192.984 60.6687C192.984 59.5437 191.047 57.9312 187.172 55.8312C183.997 54.1437 182.166 52.7375 181.678 51.6125C181.203 50.4875 180.966 49.3 180.966 48.05C180.966 45.8125 181.753 43.9125 183.328 42.35C184.903 40.775 186.778 39.9875 188.953 39.9875H192.966C197.966 39.9875 200.628 42.6625 200.953 48.0125ZM216.984 39.9875H225.009C227.197 39.9875 229.072 40.7812 230.634 42.3688C232.209 43.9438 232.997 45.825 232.997 48.0125V60.0125C232.997 62.175 232.209 64.05 230.634 65.6375C229.072 67.2125 227.197 68 225.009 68H216.984C214.797 68 212.916 67.2188 211.341 65.6562C209.778 64.0812 208.997 62.2 208.997 60.0125V48.0125C208.997 45.8 209.784 43.9125 211.359 42.35C212.934 40.775 214.809 39.9875 216.984 39.9875ZM216.984 48.0125V60.0125C216.984 61.0875 217.372 62.0187 218.147 62.8062C218.934 63.5938 219.884 63.9875 220.997 63.9875C222.109 63.9875 223.053 63.5938 223.828 62.8062C224.616 62.0187 225.009 61.0875 225.009 60.0125V48.0125C225.009 46.9125 224.609 45.9687 223.809 45.1812C223.022 44.3937 222.084 44 220.997 44C219.897 44 218.953 44.3937 218.166 45.1812C217.378 45.9687 216.984 46.9125 216.984 48.0125ZM240.966 68V32H248.953V68H240.966ZM280.997 56H264.984V60.0125C264.984 61.0875 265.372 62.0187 266.147 62.8062C266.934 63.5938 267.884 63.9875 268.997 63.9875H273.009C275.659 63.9875 276.984 62.6625 276.984 60.0125H280.997C280.372 65.3375 277.709 68 273.009 68H264.984C262.797 68 260.916 67.2188 259.341 65.6562C257.778 64.0812 256.997 62.2 256.997 60.0125V48.0125C256.997 45.8 257.784 43.9125 259.359 42.35C260.934 40.775 262.809 39.9875 264.984 39.9875H273.009C275.197 39.9875 277.072 40.7812 278.634 42.3688C280.209 43.9438 280.997 45.825 280.997 48.0125V56ZM264.984 51.9875H273.009V48.0125C273.009 46.9125 272.609 45.9687 271.809 45.1812C271.022 44.3937 270.084 44 268.997 44C267.897 44 266.953 44.3937 266.166 45.1812C265.378 45.9687 264.984 46.9125 264.984 48.0125V51.9875Z" fill="white"/>
</svg>
