<svg width="364" height="104" viewBox="0 0 364 104" fill="none" xmlns="http://www.w3.org/2000/svg">
<rect width="364" height="104" rx="50" fill="#630FAB"/>
<path d="M99.0281 68V32H100.847L117.947 49.0625L135.028 32H139.041V68H131.016V45.9875L116.972 60.0312L103.041 45.9875V68H99.0281ZM155.016 39.9875H163.041C165.228 39.9875 167.103 40.7812 168.666 42.3688C170.241 43.9438 171.028 45.825 171.028 48.0125V60.0125C171.028 62.175 170.241 64.05 168.666 65.6375C167.103 67.2125 165.228 68 163.041 68H155.016C152.828 68 150.947 67.2188 149.372 65.6562C147.809 64.0812 147.028 62.2 147.028 60.0125V48.0125C147.028 45.8 147.816 43.9125 149.391 42.35C150.966 40.775 152.841 39.9875 155.016 39.9875ZM155.016 48.0125V60.0125C155.016 61.0875 155.403 62.0187 156.178 62.8062C156.966 63.5938 157.916 63.9875 159.028 63.9875C160.141 63.9875 161.084 63.5938 161.859 62.8062C162.647 62.0187 163.041 61.0875 163.041 60.0125V48.0125C163.041 46.9125 162.641 45.9687 161.841 45.1812C161.053 44.3937 160.116 44 159.028 44C157.928 44 156.984 44.3937 156.197 45.1812C155.409 45.9687 155.016 46.9125 155.016 48.0125ZM178.997 68V32H186.984V44C187.147 42.65 187.559 41.6437 188.222 40.9812C188.897 40.3187 189.822 39.9875 190.997 39.9875H195.009C197.197 39.9875 199.072 40.7812 200.634 42.3688C202.209 43.9438 202.997 45.825 202.997 48.0125V60.0125C202.997 62.175 202.209 64.05 200.634 65.6375C199.072 67.2125 197.197 68 195.009 68H178.997ZM186.984 63.9875H190.997C192.109 63.9875 193.053 63.5938 193.828 62.8062C194.616 62.0187 195.009 61.0875 195.009 60.0125V48.0125C195.009 46.9125 194.609 45.9687 193.809 45.1812C193.022 44.3937 192.084 44 190.997 44C189.897 44 188.953 44.3937 188.166 45.1812C187.378 45.9687 186.984 46.9125 186.984 48.0125V63.9875ZM210.966 36.0125V32H218.953V36.0125H210.966ZM210.966 68V39.9875H218.953V68H210.966ZM226.997 68V32H234.984V68H226.997ZM267.028 56H251.016V60.0125C251.016 61.0875 251.403 62.0187 252.178 62.8062C252.966 63.5938 253.916 63.9875 255.028 63.9875H259.041C261.691 63.9875 263.016 62.6625 263.016 60.0125H267.028C266.403 65.3375 263.741 68 259.041 68H251.016C248.828 68 246.947 67.2188 245.372 65.6562C243.809 64.0812 243.028 62.2 243.028 60.0125V48.0125C243.028 45.8 243.816 43.9125 245.391 42.35C246.966 40.775 248.841 39.9875 251.016 39.9875H259.041C261.228 39.9875 263.103 40.7812 264.666 42.3688C266.241 43.9438 267.028 45.825 267.028 48.0125V56ZM251.016 51.9875H259.041V48.0125C259.041 46.9125 258.641 45.9687 257.841 45.1812C257.053 44.3937 256.116 44 255.028 44C253.928 44 252.984 44.3937 252.197 45.1812C251.409 45.9687 251.016 46.9125 251.016 48.0125V51.9875Z" fill="white"/>
</svg>
