<svg width="364" height="104" viewBox="0 0 364 104" fill="none" xmlns="http://www.w3.org/2000/svg">
<rect width="364" height="104" rx="50" fill="#9A08D7"/>
<path d="M155.044 68V32H171.056C173.244 32 175.119 32.7875 176.681 34.3625C178.256 35.9375 179.044 37.8125 179.044 39.9875V44C179.044 46.1875 178.256 48.0687 176.681 49.6437C175.119 51.2062 173.244 51.9875 171.056 51.9875H163.031V68H155.044ZM163.031 48.0125H167.044C168.131 48.0125 169.069 47.6188 169.856 46.8312C170.656 46.0312 171.056 45.0875 171.056 44V39.9875C171.056 38.9 170.656 37.9687 169.856 37.1937C169.069 36.4062 168.131 36.0125 167.044 36.0125H163.031V48.0125ZM211.013 60.0125C210.663 65.3375 208 68 203.025 68H195C192.812 68 190.931 67.2188 189.356 65.6562C187.794 64.0812 187.012 62.2 187.012 60.0125V39.9875C187.012 37.8375 187.781 35.9687 189.319 34.3812C190.869 32.7937 192.763 32 195 32H203.025C208.05 32 210.713 34.6625 211.013 39.9875H207C206.688 37.3375 205.363 36.0125 203.025 36.0125H199.013C197.912 36.0125 196.969 36.4062 196.181 37.1937C195.394 37.9687 195 38.9 195 39.9875V60.0125C195 61.0875 195.388 62.0187 196.163 62.8062C196.95 63.5938 197.9 63.9875 199.013 63.9875H203.025C205.375 63.9875 206.7 62.6625 207 60.0125H211.013Z" fill="white"/>
</svg>
