<svg width="364" height="104" viewBox="0 0 364 104" fill="none" xmlns="http://www.w3.org/2000/svg">
<rect width="364" height="104" rx="50" fill="#630FAB"/>
<path d="M118.969 39.9875H114.994C114.644 37.3125 113.381 35.975 111.206 35.975C109.806 35.975 108.75 36.3125 108.038 36.9875C107.325 37.6625 106.969 38.6687 106.969 40.0062C106.969 41.0062 107.363 41.9437 108.15 42.8187L116.625 52.3438C118.188 54.0938 118.969 55.975 118.969 57.9875V60.0125C118.969 62.175 118.188 64.05 116.625 65.6375C115.062 67.2125 113.181 68 110.981 68H106.969C104.319 68 102.325 67.3313 100.988 65.9938C99.65 64.6563 98.9812 62.6625 98.9812 60.0125H102.994C102.969 60.2875 102.956 60.5062 102.956 60.6687C102.956 61.7562 103.375 62.5813 104.212 63.1438C105.05 63.7063 105.969 63.9875 106.969 63.9875C108.394 63.9875 109.419 63.6438 110.044 62.9563C110.669 62.2687 110.981 61.2687 110.981 59.9562C110.981 58.9437 110.588 58.0062 109.8 57.1437L101.325 47.6562C99.7625 45.9187 98.9812 44.0375 98.9812 42.0125V39.9875C98.9812 37.8125 99.7625 35.9375 101.325 34.3625C102.888 32.7875 104.769 32 106.969 32H110.981C115.981 32 118.644 34.6625 118.969 39.9875ZM127.012 39.9875H135V63.9875H139.013C140.125 63.9875 141.069 63.5938 141.844 62.8062C142.631 62.0187 143.025 61.0875 143.025 60.0125V39.9875H151.013V63.9875H155.025C156.113 63.9875 157.044 63.5938 157.819 62.8062C158.606 62.0187 159 61.0875 159 60.0125V39.9875H167.025V54.3312C167.025 58.0562 165.681 61.2687 162.994 63.9688C160.319 66.6562 157.106 68 153.356 68H143.025V66.725C141.488 67.575 139.594 68 137.344 68H127.012V39.9875ZM175.012 36.0125V32H183V36.0125H175.012ZM175.012 68V39.9875H183V68H175.012ZM195.056 32H203.044V39.9875H207.056V44H203.044V60.0125C203.044 61.3 203.469 62.2875 204.319 62.975C205.169 63.65 205.956 63.9875 206.681 63.9875H207.056V68H203.044C200.844 68 198.963 67.2188 197.4 65.6562C195.837 64.0812 195.056 62.2 195.056 60.0125V44H191.044V39.9875H195.056V32ZM235.031 48.0125H231.056C230.744 45.3375 229.406 44 227.044 44C225.944 44 225 44.3937 224.213 45.1812C223.425 45.9687 223.031 46.9125 223.031 48.0125V60.0125C223.031 61.0875 223.419 62.0187 224.194 62.8062C224.981 63.5938 225.931 63.9875 227.044 63.9875C229.406 63.9875 230.744 62.6625 231.056 60.0125H235.031C234.706 65.3375 232.044 68 227.044 68H223.031C220.844 68 218.963 67.2188 217.388 65.6562C215.825 64.0812 215.044 62.2 215.044 60.0125V48.0125C215.044 45.8 215.831 43.9125 217.406 42.35C218.981 40.775 220.856 39.9875 223.031 39.9875H227.044C232.069 39.9875 234.731 42.6625 235.031 48.0125ZM243.075 68V32H251.062V44C251.225 42.65 251.638 41.6437 252.3 40.9812C252.975 40.3187 253.9 39.9875 255.075 39.9875H259.088C261.275 39.9875 263.15 40.7812 264.713 42.3688C266.288 43.9438 267.075 45.825 267.075 48.0125V68H259.088V48.0125C259.088 46.9125 258.688 45.9687 257.888 45.1812C257.1 44.3937 256.162 44 255.075 44C253.975 44 253.031 44.3937 252.244 45.1812C251.456 45.9687 251.062 46.9125 251.062 48.0125V68H243.075Z" fill="white"/>
</svg>
